<svg width="48" height="35" viewBox="0 0 48 35" fill="none" xmlns="http://www.w3.org/2000/svg">
<path d="M4.6712 34.7951C7.24196 34.7951 9.34246 32.693 9.34246 30.1202V0H36.6176V30.1202C36.6176 32.693 34.5171 34.7951 31.9463 34.7951" fill="#007DFA"/>
<path d="M27.2751 30.12V26.5746H0V30.12C0 32.6928 2.1005 34.7949 4.67126 34.7949H31.9464C29.3756 34.7949 27.2751 32.6928 27.2751 30.12Z" fill="#0358AD"/>
<path d="M17.7131 5.9925H14.2332V7.49932H17.7131V5.9925Z" fill="white"/>
<path d="M31.0998 5.9925H20.4092V7.49932H31.0998V5.9925Z" fill="#96CAFF"/>
<path d="M17.7131 11.3264H14.2332V12.8332H17.7131V11.3264Z" fill="white"/>
<path d="M31.0998 11.3264H20.4092V12.8332H31.0998V11.3264Z" fill="#96CAFF"/>
<path d="M17.7131 16.6602H14.2332V18.1671H17.7131V16.6602Z" fill="white"/>
<path d="M31.0998 16.6602H20.4092V18.1671H31.0998V16.6602Z" fill="#96CAFF"/>
<path d="M17.7131 21.9941H14.2332V23.5009H17.7131V21.9941Z" fill="white"/>
<path d="M31.0998 21.9941H20.4092V23.5009H31.0998V21.9941Z" fill="#96CAFF"/>
<path opacity="0.1" d="M36.6176 22.2451V4.32982C36.2413 4.26707 35.8338 4.23569 35.4262 4.23569C30.4415 4.23569 26.3972 8.2831 26.3972 13.2718C26.3972 18.2604 30.4415 22.3078 35.4262 22.3078C35.8338 22.3392 36.2413 22.3078 36.6176 22.2451Z" fill="#0C1E5B"/>
<path d="M38.5933 20.5196C43.5799 20.5196 47.6224 16.474 47.6224 11.4834C47.6224 6.49289 43.5799 2.44726 38.5933 2.44726C33.6067 2.44726 29.5642 6.49289 29.5642 11.4834C29.5642 16.474 33.6067 20.5196 38.5933 20.5196Z" fill="#FF6966"/>
<path d="M40.1917 12.1106V6.49443H36.9939V12.1106H34.8621L38.5928 16.4717L42.3235 12.1106L40.1917 12.1106Z" fill="white"/>
</svg>
