<svg width="338" height="207" viewBox="0 0 338 207" fill="none" xmlns="http://www.w3.org/2000/svg">
<path d="M237.342 159.66H162.966V182.981H237.342V159.66Z" fill="#9A9A9A"/>
<path d="M110.992 149.111V179.939H136.389L146.568 165.186H332.003V149.111H110.992Z" fill="#9A9A9A"/>
<path d="M109.408 51.4938C109.381 50.9981 109.159 50.5331 108.792 50.1989C108.425 49.8646 107.941 49.6878 107.445 49.7064C97.4077 50.1206 49.7566 52.3052 39.9574 57.0147C32.4563 60.6234 24.2402 74.0937 18.4469 83.1666C14.2935 89.6691 5.11847 104.104 3.26304 111.486C1.69132 117.728 0.743741 130.71 0.851549 137.15L3.47298 171.229H46.6585L50.9822 159.971C52.3619 156.385 54.796 153.302 57.9634 151.127C61.1308 148.952 64.8829 147.788 68.7251 147.789H111.638V91.2352L109.408 51.4938Z" fill="#007DFA" fill-opacity="0.15"/>
<path d="M34.8398 60.7879C28.8933 66.462 22.9241 76.108 18.4473 83.1666C14.6002 89.1868 6.45224 102.005 3.79109 109.733C3.74002 109.875 3.7003 110.011 3.65491 110.153C4.9713 109.789 6.99695 109.046 7.62678 107.798C8.57435 105.908 9.78861 99.4342 24.8023 74.9959C29.3642 67.5458 33.8127 63.1881 34.8398 60.7879Z" fill="#9A9A9A"/>
<path d="M87.2227 58.2629C76.1809 58.8928 52.2418 60.5326 44.5932 63.1313C34.6294 66.5358 23.4458 92.9147 22.9181 94.0722L15.3829 113.364C15.3406 113.49 15.329 113.625 15.3488 113.756C15.3687 113.888 15.4195 114.013 15.497 114.121C15.5746 114.229 15.6767 114.317 15.795 114.378C15.9132 114.438 16.0443 114.47 16.1773 114.471H35.6564C36.3942 114.471 37.1261 114.34 37.8183 114.085L89.0497 94.9857C90.1809 94.5636 91.1561 93.8059 91.8447 92.8141C92.5332 91.8223 92.9023 90.6438 92.9024 89.4365V63.6363C92.9028 62.9044 92.7538 62.1801 92.4645 61.5077C92.1752 60.8353 91.7518 60.2291 91.2201 59.7261C90.6884 59.2231 90.0596 58.8338 89.3723 58.5823C88.6849 58.3307 87.9535 58.222 87.2227 58.2629Z" fill="#9A9A9A"/>
<path d="M17.5556 112.575C17.5556 112.575 24.7731 96.3871 27.2016 91.0818C30.8671 83.07 39.4293 66.6832 45.2112 64.9186C50.5278 63.3241 65.8139 61.3836 87.33 60.1523H87.5343C88.4584 60.1553 89.3436 60.5241 89.9965 61.1781C90.6493 61.832 91.0167 62.7178 91.0182 63.6419V90.0265C91.0161 90.6767 90.8164 91.3109 90.4455 91.845C90.0746 92.379 89.55 92.7877 88.9415 93.0167L51.0896 97.6865C49.5722 97.8737 48.1138 98.3889 46.8156 99.1963C45.5173 100.004 44.4103 101.084 43.5714 102.362L37.0121 112.365C36.6271 112.508 36.2198 112.581 35.8092 112.581L17.5556 112.575Z" fill="#9A9A9A"/>
<path d="M49.7171 97.9757L36.8483 112.309L43.9693 64.7198L45.7509 64.107L42.2443 99.3602C42.2278 99.5372 42.257 99.7155 42.3291 99.878C42.4012 100.041 42.5139 100.182 42.6562 100.288C42.7986 100.395 42.9659 100.463 43.1422 100.486C43.3184 100.509 43.4977 100.487 43.6629 100.421L49.7171 97.9757Z" fill="#9A9A9A"/>
<path d="M0.00616021 140.459C-0.0392326 139.84 0.170708 139.324 0.488458 139.324L7.38816 138.689C7.95557 138.632 8.48326 139.704 8.55135 140.958L8.86343 146.252C8.9145 147.103 8.65916 147.824 8.29602 147.886L1.26014 149.101C0.942386 149.157 0.635984 148.686 0.590592 148.062L0.00616021 140.459Z" fill="#EBEBEB"/>
<path d="M49.717 165.192H0.000549316V185.125H49.717V165.192Z" fill="#9A9A9A"/>
<path d="M82.904 205.945C97.916 205.368 109.618 192.731 109.041 177.719C108.465 162.707 95.8276 151.005 80.8156 151.581C65.8036 152.158 54.1015 164.795 54.6782 179.807C55.2549 194.819 67.8921 206.521 82.904 205.945Z" fill="#9A9A9A"/>
<path d="M54.6818 178.293C54.6848 178.318 54.6848 178.342 54.6818 178.367C54.5866 185.575 57.3565 192.526 62.383 197.693C67.4095 202.86 74.2816 205.821 81.4895 205.925C88.6975 206.029 95.6518 203.267 100.825 198.247C105.998 193.226 108.967 186.358 109.079 179.15C109.079 179.15 109.079 179.105 109.079 179.082L54.6818 178.293Z" fill="#9A9A9A"/>
<path d="M62.7787 178.481C62.723 182.258 63.7887 185.967 65.8411 189.139C67.8935 192.31 70.8403 194.802 74.3089 196.299C77.7776 197.795 81.6121 198.23 85.3276 197.547C89.0432 196.864 92.4727 195.095 95.1826 192.463C97.8925 189.831 99.7609 186.454 100.552 182.76C101.342 179.066 101.02 175.22 99.6247 171.709C98.2297 168.199 95.8248 165.181 92.7143 163.037C89.6038 160.893 85.9274 159.72 82.1501 159.665C77.0865 159.593 72.2013 161.534 68.5687 165.062C64.936 168.59 62.8534 173.417 62.7787 178.481Z" fill="#FAFAFA"/>
<path d="M82.1498 159.665C77.0862 159.593 72.201 161.534 68.5683 165.062C64.9357 168.59 62.8531 173.417 62.7784 178.481L100.971 179.048C101.045 173.982 99.1039 169.094 95.5743 165.459C92.0447 161.824 87.2158 159.74 82.1498 159.665Z" fill="#E0E0E0"/>
<path d="M70.2455 178.589C70.2121 180.889 70.8616 183.148 72.1119 185.079C73.3623 187.01 75.1572 188.527 77.2699 189.439C79.3825 190.35 81.7179 190.614 83.9806 190.198C86.2434 189.781 88.3318 188.703 89.9819 187.1C91.632 185.497 92.7696 183.44 93.2508 181.19C93.732 178.941 93.5352 176.599 92.6853 174.461C91.8354 172.323 90.3705 170.485 88.476 169.179C86.5815 167.874 84.3424 167.16 82.0419 167.127C78.9578 167.083 75.9826 168.266 73.7704 170.415C71.5582 172.564 70.2903 175.504 70.2455 178.589Z" fill="#9A9A9A"/>
<path d="M29.1143 75.5411H26.8957C24.395 75.5411 22.3678 77.5683 22.3678 80.069V98.0729C22.3678 100.574 24.395 102.601 26.8957 102.601H29.1143C31.615 102.601 33.6422 100.574 33.6422 98.0729V80.069C33.6422 77.5683 31.615 75.5411 29.1143 75.5411Z" fill="#9A9A9A"/>
<path d="M17.7037 119.328H17.1363V90.7135C17.1378 89.3491 17.6805 88.0409 18.6453 87.0761C19.6101 86.1113 20.9183 85.5686 22.2827 85.5671H23.6445V86.1345H22.2827C21.0688 86.136 19.905 86.6189 19.0465 87.4773C18.1881 88.3357 17.7052 89.4995 17.7037 90.7135V119.328Z" fill="#9A9A9A"/>
<path d="M21.5683 119.362L19.9909 92.6089C19.9687 92.1515 20.0391 91.6943 20.1977 91.2647C20.3564 90.8351 20.6 90.442 20.9142 90.1087C21.2283 89.7755 21.6064 89.5091 22.0259 89.3255C22.4454 89.1418 22.8977 89.0447 23.3556 89.0398V89.6073C22.9737 89.6074 22.5959 89.6855 22.2453 89.8369C21.8947 89.9883 21.5787 90.2097 21.3168 90.4876C21.0548 90.7655 20.8524 91.094 20.722 91.4529C20.5916 91.8118 20.5359 92.1936 20.5583 92.5748L22.1357 119.334L21.5683 119.362Z" fill="#9A9A9A"/>
<path d="M23.3551 116.752H15.7064V125.609H23.3551V116.752Z" fill="#9A9A9A"/>
<path d="M20.5291 99.9398H17.4197V100.507H20.5291V99.9398Z" fill="#9A9A9A"/>
<path d="M46.494 59.0296L47.1692 58.9388L49.1608 58.7062L56.8776 57.8154L85.6453 54.5414C87.1773 54.3769 88.7377 54.1726 90.3548 54.0307C91.1809 53.9678 92.0118 54.0213 92.823 54.1896C93.6479 54.3825 94.4435 54.684 95.1891 55.0861C96.7271 55.942 97.974 57.2383 98.7695 58.8083C99.181 59.6109 99.4589 60.4753 99.5922 61.3673C99.6636 61.8179 99.7034 62.273 99.7114 62.7291V64.0966C99.7114 71.4219 99.7114 79.2862 99.7114 87.6214C99.7114 104.292 99.7114 122.835 99.7114 142.66V142.808H69.8259C68.1199 142.752 66.4121 142.833 64.7192 143.052C61.2271 143.554 57.9324 144.98 55.1754 147.181C52.4184 149.383 50.299 152.28 49.036 155.574C48.7909 156.179 48.5843 156.799 48.4175 157.43C48.2331 158.054 48.0872 158.689 47.9806 159.331L47.8331 160.295L47.765 160.778L47.7366 161.26L47.6912 162.23V162.718V162.775C47.8161 162.65 47.5153 162.968 47.538 162.934H9.64075V162.775C9.64075 154.224 9.64075 145.98 9.64075 138.104C9.64075 134.166 9.64075 130.321 9.64075 126.568V121.019C9.64075 120.106 9.64075 119.203 9.64075 118.301C9.65925 117.404 9.72364 116.508 9.83367 115.617C10.2664 112.184 11.3568 108.867 13.0452 105.847C14.6075 102.907 16.1206 100.07 17.5845 97.3355L25.6304 82.2594L32.1612 70.0203C32.6379 69.1314 33.0956 68.2708 33.5344 67.4386C33.7613 67.0301 33.9599 66.6159 34.1982 66.2301C34.4332 65.853 34.6889 65.4893 34.9642 65.1406C35.9483 63.9136 37.1067 62.8373 38.4028 61.9461C40.1878 60.7344 42.1833 59.8665 44.2868 59.3871C45.0089 59.2139 45.7429 59.0944 46.4827 59.0296L45.9153 59.1147C45.5464 59.1715 45.0017 59.2679 44.2868 59.4325C42.1957 59.9269 40.2142 60.8041 38.4425 62.0199C37.1574 62.9123 36.0103 63.9886 35.038 65.2144C34.7633 65.557 34.5112 65.9171 34.2834 66.2925C34.0507 66.667 33.8521 67.0868 33.6252 67.501L32.2577 70.0884L25.7836 82.3388C23.355 86.9121 20.6769 91.9564 17.7831 97.4262L13.2438 105.937C11.571 108.935 10.4939 112.228 10.072 115.634C9.96384 116.518 9.90134 117.406 9.88473 118.296C9.88473 119.186 9.88473 120.1 9.88473 121.008V126.557C9.88473 130.306 9.88473 134.151 9.88473 138.093C9.88473 145.968 9.88473 154.213 9.88473 162.764L9.74288 162.627H47.4926C47.5324 162.599 47.2203 162.9 47.3508 162.764V162.701V162.213L47.4019 161.226V160.738L47.4756 160.25L47.6232 159.268C47.731 158.617 47.8788 157.972 48.0657 157.339C48.2355 156.698 48.4458 156.069 48.6956 155.455C49.9787 152.113 52.1299 149.173 54.9275 146.939C57.7252 144.705 61.068 143.257 64.6114 142.745C66.3046 142.53 68.0121 142.448 69.7181 142.501H99.4674L99.3199 142.643C99.3199 122.841 99.3199 104.298 99.3199 87.6044C99.3199 79.2691 99.3199 71.4048 99.3199 64.0796C99.3568 63.1796 99.3189 62.2781 99.2064 61.3844C99.0773 60.5124 98.8071 59.6672 98.4063 58.8821C97.6361 57.3473 96.4197 56.0814 94.9168 55.2507C94.1924 54.8541 93.4174 54.5582 92.6131 54.3712C91.8209 54.204 91.0092 54.1486 90.2016 54.2066C88.5958 54.3428 87.0241 54.5471 85.4978 54.7116L56.7358 57.8948L49.0133 58.7402L47.0217 58.9502L46.494 59.0296Z" fill="#9A9A9A"/>
<path d="M90.6556 121.74C90.6556 121.74 90.8145 121.74 91.0982 121.672C91.5154 121.597 91.9131 121.439 92.2671 121.206C92.8253 120.841 93.2432 120.297 93.453 119.663C93.5812 119.268 93.6332 118.852 93.6062 118.437C93.5939 117.978 93.4755 117.527 93.2601 117.121C93.0132 116.656 92.646 116.266 92.1968 115.992C91.7477 115.717 91.233 115.568 90.7067 115.561H86.9618H78.3826C77.6682 115.562 76.9792 115.825 76.4467 116.301C75.9141 116.777 75.5752 117.433 75.4945 118.142C75.4053 118.816 75.5304 119.501 75.8519 120.1C76.1708 120.666 76.6702 121.11 77.2704 121.36C77.8639 121.566 78.4945 121.643 79.1202 121.587H80.9359H84.1985L88.925 121.632H90.2131C90.3613 121.629 90.5096 121.64 90.6556 121.666C90.5088 121.684 90.361 121.693 90.2131 121.694H88.925L84.1985 121.74H80.9359H79.1202C78.8024 121.74 78.496 121.74 78.1613 121.74C77.8208 121.714 77.486 121.638 77.1683 121.513C76.512 121.24 75.965 120.757 75.6136 120.14C75.2613 119.49 75.1223 118.745 75.2164 118.012C75.3041 117.233 75.6752 116.513 76.259 115.99C76.8429 115.467 77.5987 115.177 78.3826 115.175H86.9618H90.7067C91.5252 115.191 92.3052 115.525 92.8814 116.107C93.4576 116.688 93.7847 117.471 93.7934 118.29C93.8114 118.723 93.7479 119.156 93.6062 119.567C93.3728 120.225 92.9227 120.786 92.3295 121.155C91.9594 121.386 91.5427 121.531 91.1096 121.581C90.9653 121.652 90.8129 121.706 90.6556 121.74Z" fill="#9A9A9A"/>
<path d="M89.617 114.613C88.0003 114.755 86.3766 114.803 84.7543 114.755C83.1301 114.803 81.5046 114.755 79.8859 114.613C81.5043 114.467 83.13 114.418 84.7543 114.466C86.3767 114.418 88.0005 114.467 89.617 114.613Z" fill="white"/>
<path d="M51.9809 185.29L47.4417 184.96C48.6275 168.704 50.3638 158.979 52.7526 155.228C57.3373 148.022 61.8936 146.717 66.9379 145.86C71.636 145.06 76.3739 145.247 80.9586 145.435L82.0934 145.48C91.5578 145.849 111.383 145.52 111.599 145.52L111.672 150.059C111.474 150.059 91.5237 150.394 81.9345 150.019L80.7997 149.974C76.4476 149.804 71.9538 149.616 67.7209 150.343C63.21 151.109 60.2084 151.988 56.5883 157.674C55.4932 159.37 53.4392 165.266 51.9809 185.29Z" fill="#9A9A9A"/>
<path d="M337.564 0.109291H114.016V148.952H337.564V0.109291Z" fill="#007DFA" fill-opacity="0.15"/>
<path d="M334.886 146.008C334.886 145.049 334.84 90.4582 334.767 3.47421L334.886 3.58769L116.433 3.62174L116.58 3.47421C116.58 54.1382 116.58 102.362 116.58 146.008L116.444 145.871L334.897 146.008L116.444 146.144H116.285V146.008C116.285 102.362 116.285 54.1382 116.285 3.47421V3.33236H116.45L334.903 3.36073H335.022V3.47988C334.931 90.4582 334.886 145.054 334.886 146.008Z" fill="#9A9A9A"/>
<path d="M82.2411 70.5927C82.2411 70.5927 82.173 70.6608 82.0311 70.7686L81.407 71.2169C80.8396 71.6084 80.0622 72.1531 79.0749 72.8283C77.0946 74.1674 74.337 75.9945 71.2617 77.9634C68.1863 79.9323 65.3776 81.6743 63.3179 82.9169C62.2966 83.5354 61.4625 84.0517 60.8837 84.3695L60.2142 84.7439C60.1379 84.7933 60.056 84.8333 59.9702 84.8631C59.9702 84.8631 60.0383 84.795 60.1802 84.6986L60.8213 84.2673L63.2101 82.741L71.0915 77.7137L78.9444 72.6524L81.3332 71.1261L81.9914 70.7176C82.0699 70.6671 82.1536 70.6252 82.2411 70.5927Z" fill="#FAFAFA"/>
<path d="M72.5434 73.1578C72.5434 73.1578 72.4753 73.2259 72.3335 73.3337L71.7093 73.7819C71.1419 74.1678 70.3646 74.7182 69.3716 75.3877C67.3913 76.7325 64.6337 78.5538 61.564 80.4944C58.4943 82.4349 55.68 84.2109 53.6203 85.4535C52.599 86.072 51.7649 86.5884 51.1861 86.9004L50.5166 87.2806C50.4416 87.3308 50.3593 87.3691 50.2726 87.3941C50.3362 87.3315 50.4066 87.2764 50.4825 87.2295L51.1237 86.804L53.5068 85.272L61.3938 80.2504L69.2468 75.1891L71.6356 73.6571L72.2881 73.2542C72.3686 73.211 72.4544 73.1785 72.5434 73.1578Z" fill="#FAFAFA"/>
<path d="M24.7738 89.6751C24.6869 89.52 24.6274 89.3511 24.5979 89.1758C24.5071 88.8524 24.3823 88.3757 24.2405 87.7856C23.8674 86.2434 23.677 84.6628 23.673 83.0761C23.665 81.4733 24.0343 79.891 24.7511 78.4574C24.9753 78.0284 25.2455 77.6251 25.5568 77.2545C25.6618 77.1129 25.7882 76.9885 25.9313 76.8857C25.5691 77.4236 25.2358 77.9805 24.9327 78.5539C24.2861 79.9794 23.9551 81.5278 23.9624 83.0931C23.9796 84.6605 24.1487 86.2225 24.4674 87.7572C24.6093 88.3895 24.7117 89.0301 24.7738 89.6751Z" fill="#FAFAFA"/>
<path d="M1.6688 129.905C1.64828 129.703 1.64828 129.499 1.6688 129.298C1.6688 128.889 1.6688 128.299 1.70285 127.595C1.74824 126.137 1.85605 124.123 2.03194 121.921C2.20784 119.72 2.41778 117.7 2.59935 116.247C2.69014 115.521 2.76958 114.936 2.83199 114.545C2.85335 114.335 2.8971 114.127 2.9625 113.926C2.991 114.137 2.991 114.351 2.9625 114.562L2.81497 116.264C2.69014 117.785 2.51992 119.754 2.33267 121.938C2.14542 124.123 2.03194 126.086 1.92414 127.612C1.87307 128.293 1.82768 128.866 1.79363 129.315C1.77636 129.516 1.73444 129.714 1.6688 129.905Z" fill="#FAFAFA"/>
<path d="M63.8509 140.918C63.8509 140.981 62.7558 141.134 61.0593 141.684C60.0662 142.007 59.0973 142.399 58.1598 142.859C55.8627 144 53.7845 145.536 52.0204 147.398C51.3001 148.154 50.6345 148.959 50.0288 149.81C49.0018 151.268 48.5195 152.272 48.4684 152.244C48.5528 151.996 48.6591 151.757 48.7862 151.529C48.9131 151.252 49.0572 150.983 49.2174 150.723C49.399 150.417 49.5976 150.059 49.8586 149.69C50.4461 148.813 51.1025 147.984 51.8218 147.211C52.7134 146.266 53.6833 145.399 54.7213 144.618C55.7689 143.857 56.8815 143.191 58.0463 142.626C58.9978 142.169 59.9845 141.79 60.9969 141.491C61.4224 141.35 61.8253 141.27 62.1714 141.185C62.469 141.113 62.7701 141.056 63.0736 141.015C63.329 140.958 63.5893 140.925 63.8509 140.918Z" fill="#FAFAFA"/>
<path d="M119.73 106.664C119.722 106.583 119.722 106.501 119.73 106.42C119.73 106.246 119.73 106.008 119.73 105.705C119.73 105.058 119.73 104.133 119.69 102.953C119.656 100.547 119.61 97.0917 119.548 92.8305C119.395 84.2683 119.185 72.4718 118.952 59.4384C118.72 46.405 118.521 34.5858 118.442 26.0406C118.402 21.768 118.391 18.3068 118.396 15.918C118.396 14.7322 118.396 13.8073 118.396 13.1661V12.4512C118.396 12.2866 118.396 12.2072 118.396 12.2072C118.404 12.2883 118.404 12.37 118.396 12.4512C118.396 12.6214 118.396 12.8597 118.396 13.1661C118.396 13.8073 118.396 14.7322 118.436 15.918C118.47 18.3239 118.515 21.7737 118.578 26.035C118.731 34.5972 118.941 46.3936 119.174 59.4327C119.406 72.4718 119.61 84.2796 119.684 92.8248C119.724 97.1031 119.741 100.559 119.735 102.947C119.735 104.133 119.735 105.058 119.735 105.705C119.735 106.006 119.735 106.244 119.735 106.42C119.738 106.501 119.736 106.583 119.73 106.664Z" fill="#FAFAFA"/>
<path d="M283.898 205.913C298.909 205.313 310.591 192.657 309.991 177.646C309.391 162.635 296.735 150.953 281.724 151.553C266.713 152.154 255.031 164.809 255.631 179.82C256.231 194.831 268.887 206.513 283.898 205.913Z" fill="#9A9A9A"/>
<path d="M255.602 178.293C255.602 178.293 255.602 178.344 255.602 178.367C255.498 185.58 258.264 192.538 263.29 197.712C268.317 202.886 275.193 205.851 282.406 205.954C289.619 206.058 296.578 203.293 301.751 198.266C306.925 193.239 309.89 186.363 309.994 179.15V179.082L255.602 178.293Z" fill="#9A9A9A"/>
<path d="M263.699 178.481C263.644 182.256 264.71 185.964 266.763 189.133C268.815 192.303 271.761 194.793 275.228 196.289C278.696 197.784 282.528 198.218 286.242 197.535C289.956 196.852 293.384 195.084 296.093 192.453C298.802 189.822 300.67 186.447 301.46 182.754C302.251 179.062 301.929 175.218 300.535 171.708C299.141 168.199 296.738 165.182 293.629 163.038C290.52 160.894 286.846 159.721 283.07 159.665C278.006 159.593 273.121 161.534 269.489 165.062C265.856 168.59 263.773 173.417 263.699 178.481Z" fill="#FAFAFA"/>
<path d="M283.07 159.665C280.563 159.629 278.073 160.086 275.742 161.012C273.411 161.938 271.286 163.313 269.487 165.061C267.688 166.808 266.251 168.892 265.258 171.195C264.265 173.498 263.735 175.973 263.699 178.481L301.885 179.048C301.924 176.54 301.467 174.048 300.542 171.716C299.617 169.385 298.242 167.258 296.494 165.458C294.747 163.658 292.662 162.22 290.359 161.226C288.055 160.232 285.579 159.702 283.07 159.665Z" fill="#E0E0E0"/>
<path d="M271.189 178.589C271.155 180.889 271.805 183.148 273.055 185.079C274.306 187.01 276.101 188.527 278.213 189.439C280.326 190.35 282.661 190.614 284.924 190.198C287.187 189.781 289.275 188.703 290.925 187.1C292.575 185.497 293.713 183.44 294.194 181.19C294.675 178.941 294.479 176.599 293.629 174.461C292.779 172.323 291.314 170.485 289.419 169.179C287.525 167.874 285.286 167.16 282.985 167.127C279.901 167.083 276.926 168.266 274.714 170.415C272.502 172.564 271.234 175.504 271.189 178.589Z" fill="#9A9A9A"/>
<path d="M247.039 186.208C247.039 186.208 242.897 147.624 282.877 147.624C319.759 147.624 318.942 180.806 318.59 185.941H312.808C312.808 185.941 315.753 153.236 282.877 153.236C250.001 153.236 252.861 186.605 252.861 186.605C252.861 186.605 250.433 186.486 247.039 186.208Z" fill="#9A9A9A"/>
<path d="M268.453 151.62C268.354 151.671 268.25 151.709 268.141 151.733C267.931 151.807 267.619 151.881 267.233 152.017C266.124 152.37 265.038 152.792 263.982 153.282C260.487 154.885 257.391 157.243 254.916 160.187C252.442 163.13 250.651 166.586 249.672 170.304C249.372 171.424 249.143 172.561 248.985 173.709C248.923 174.117 248.9 174.435 248.866 174.651C248.857 174.762 248.838 174.872 248.81 174.98C248.796 174.871 248.796 174.76 248.81 174.651C248.81 174.43 248.81 174.083 248.878 173.698C248.99 172.53 249.191 171.373 249.479 170.236C250.409 166.461 252.193 162.949 254.694 159.971C257.194 156.994 260.345 154.63 263.903 153.061C264.973 152.583 266.076 152.185 267.205 151.869C267.602 151.756 267.92 151.693 268.13 151.642C268.236 151.623 268.345 151.615 268.453 151.62Z" fill="#FAFAFA"/>
</svg>
