<svg width="44" height="34" viewBox="0 0 44 34" fill="none" xmlns="http://www.w3.org/2000/svg">
<path d="M17.3301 0L0 7.08766L17.3301 14.1753L34.6603 7.08766L17.3301 0Z" fill="#0173E5"/>
<path d="M10.296 2.89178L7.03418 4.19591L24.3643 11.3119L27.5978 9.97944L10.296 2.89178Z" fill="#A5D2FF"/>
<path d="M0 7.08768V26.6213L17.3301 33.7089V14.1753L0 7.08768Z" fill="#0559AD"/>
<path d="M34.6602 7.08768V26.6213L17.3301 33.7089V14.1753L34.6602 7.08768Z" fill="#007DFA"/>
<path opacity="0.1" d="M34.6602 17.0671C34.1497 16.9536 33.6391 16.8969 33.1002 16.8969C28.9024 16.8969 25.4988 20.299 25.4988 24.4949C25.4988 26.4511 26.2362 28.2372 27.4559 29.5697L34.6602 26.6212V17.0671V17.0671Z" fill="#0C1E5B"/>
<path d="M24.3643 11.3119V19.5053L27.5978 18.1728V9.97946L24.3643 11.3119Z" fill="#A5D2FF"/>
<path d="M36.1919 31.5258C40.39 31.5258 43.7933 28.1241 43.7933 23.9279C43.7933 19.7316 40.39 16.3299 36.1919 16.3299C31.9937 16.3299 28.5905 19.7316 28.5905 23.9279C28.5905 28.1241 31.9937 31.5258 36.1919 31.5258Z" fill="#00B074"/>
<path d="M35.3979 26.8764C35.171 26.8764 34.9725 26.7914 34.8023 26.6213L32.3914 24.2115C32.051 23.8713 32.051 23.3326 32.3914 23.0207C32.7317 22.6805 33.2707 22.6805 33.5827 23.0207L35.3979 24.8352L38.8015 21.4331C39.1419 21.0929 39.6808 21.0929 39.9928 21.4331C40.3332 21.7733 40.3332 22.312 39.9928 22.6238L35.9936 26.6213C35.8234 26.7914 35.6248 26.8764 35.3979 26.8764Z" fill="white"/>
<path d="M5.61589 23.9846L3.74389 20.1289L1.98535 22.4253L2.94971 22.8506V25.3454L4.50971 26.0542V23.531L5.61589 23.9846Z" fill="#F2F5F3"/>
</svg>
