<svg width="49" height="35" viewBox="0 0 49 35" fill="none" xmlns="http://www.w3.org/2000/svg">
<path d="M5.14093 34.7951C7.71169 34.7951 9.81218 32.693 9.81218 30.1202V0H37.0873V30.1202C37.0873 32.693 34.9868 34.7951 32.416 34.7951" fill="#007DFA"/>
<path d="M27.7448 30.12V26.5746H0.469727V30.12C0.469727 32.6928 2.57023 34.7949 5.14099 34.7949H32.4161C29.8453 34.7949 27.7448 32.6928 27.7448 30.12Z" fill="#0358AD"/>
<path d="M18.1829 5.9925H14.7029V7.49932H18.1829V5.9925Z" fill="white"/>
<path d="M31.5696 5.9925H20.879V7.49932H31.5696V5.9925Z" fill="#96CAFF"/>
<path d="M18.1829 11.3264H14.7029V12.8332H18.1829V11.3264Z" fill="white"/>
<path d="M31.5696 11.3264H20.879V12.8332H31.5696V11.3264Z" fill="#96CAFF"/>
<path d="M18.1829 16.6602H14.7029V18.1671H18.1829V16.6602Z" fill="white"/>
<path d="M31.5696 16.6602H20.879V18.1671H31.5696V16.6602Z" fill="#96CAFF"/>
<path d="M18.1829 21.9941H14.7029V23.5009H18.1829V21.9941Z" fill="white"/>
<path d="M31.5696 21.9941H20.879V23.5009H31.5696V21.9941Z" fill="#96CAFF"/>
<path opacity="0.1" d="M37.0873 22.2451V4.32982C36.7111 4.26707 36.3035 4.23569 35.8959 4.23569C30.9112 4.23569 26.8669 8.2831 26.8669 13.2718C26.8669 18.2604 30.9112 22.3078 35.8959 22.3078C36.3035 22.3392 36.7111 22.3078 37.0873 22.2451Z" fill="#0C1E5B"/>
<path d="M39.063 20.5196C44.0497 20.5196 48.0921 16.474 48.0921 11.4834C48.0921 6.49289 44.0497 2.44726 39.063 2.44726C34.0764 2.44726 30.0339 6.49289 30.0339 11.4834C30.0339 16.474 34.0764 20.5196 39.063 20.5196Z" fill="#00B074"/>
<path d="M37.4637 10.8556V16.4718H40.6614V10.8556H42.7933L39.0625 6.49448L35.3318 10.8556H37.4637Z" fill="white"/>
</svg>
