<svg width="43" height="38" viewBox="0 0 43 38" fill="none" xmlns="http://www.w3.org/2000/svg">
<path d="M20.7968 7.94354C20.3705 7.94354 20.0356 7.60875 20.0356 7.18266V5.26526C20.0356 3.19568 18.3609 1.52175 16.3208 1.52175C15.316 1.52175 14.4025 1.91741 13.6718 2.61741C12.941 3.31742 12.5756 4.2609 12.5756 5.26526V7.18266C12.5756 7.60875 12.2407 7.94354 11.8144 7.94354C11.3881 7.94354 11.0532 7.60875 11.0532 7.18266V5.26526C11.0532 3.86525 11.6012 2.55654 12.5756 1.55219C13.5804 0.54783 14.8897 0 16.2904 0C19.183 0 21.5276 2.3435 21.5276 5.23482V7.15223C21.558 7.60875 21.2231 7.94354 20.7968 7.94354Z" fill="#007DFA"/>
<path d="M32.763 33.6003H10.5658L6.88147 5.17401H31.2101L32.763 33.6003Z" fill="#007DFA"/>
<path d="M10.5658 33.6003L5.29812 32.6873L0 33.6003L1.58335 5.17401H8.98243L10.5658 33.6003Z" fill="#045CB4"/>
<path d="M20.218 14.974C17.3254 14.974 14.9808 12.6305 14.9808 9.73913V7.82173C14.9808 7.39564 15.3158 7.06085 15.7421 7.06085C16.1683 7.06085 16.5033 7.39564 16.5033 7.82173V9.73913C16.5033 11.8087 18.178 13.4522 20.218 13.4522C22.2581 13.4522 23.9633 11.7783 23.9633 9.7087V7.79129C23.9633 7.3652 24.2982 7.03042 24.7245 7.03042C25.1508 7.03042 25.4857 7.3652 25.4857 7.79129V9.7087C25.4857 12.6305 23.1411 14.974 20.218 14.974Z" fill="white"/>
<path opacity="0.1" d="M21.5884 29.7045C21.5884 31.1046 21.9538 32.4437 22.5932 33.6002H32.7936L32.1541 21.9132C31.3929 21.6697 30.6012 21.548 29.7791 21.548C25.2422 21.548 21.5884 25.2002 21.5884 29.7045Z" fill="#0C1E5B"/>
<path d="M34.1602 37.8611C38.667 37.8611 42.3205 34.2093 42.3205 29.7045C42.3205 25.1998 38.667 21.548 34.1602 21.548C29.6534 21.548 25.9999 25.1998 25.9999 29.7045C25.9999 34.2093 29.6534 37.8611 34.1602 37.8611Z" fill="#FF6966"/>
<path d="M38 26.1128L31 33.1128M31 26.1128L38 33.1128" stroke="white" stroke-width="2"/>
<path d="M38 26.1128L31 33.1128M31 26.1128L38 33.1128" stroke="white" stroke-width="2"/>
</svg>
